<svg width="35" height="35" viewBox="0 0 35 35" fill="none" xmlns="http://www.w3.org/2000/svg">
<g clip-path="url(#clip0_19_2292)">
<path d="M22.1553 8.61544H12.8453C10.5138 8.61544 8.61569 10.5135 8.61569 12.8451V22.1551C8.61569 24.4866 10.5138 26.3847 12.8453 26.3847H22.1553C24.4868 26.3847 26.3849 24.4866 26.3849 22.1551V12.8451C26.3849 10.5135 24.4868 8.61544 22.1553 8.61544ZM17.5003 23.0328C14.4499 23.0328 11.9676 20.5504 11.9676 17.5001C11.9676 14.4497 14.4499 11.9674 17.5003 11.9674C20.5507 11.9674 23.033 14.4497 23.033 17.5001C23.033 20.5504 20.5507 23.0328 17.5003 23.0328ZM23.1838 13.0981C22.4703 13.0981 21.8915 12.5193 21.8915 11.8045C21.8915 11.091 22.4703 10.5122 23.1838 10.5122C23.8986 10.5122 24.4774 11.091 24.4774 11.8045C24.4774 12.5193 23.8986 13.0981 23.1838 13.0981ZM17.5003 13.852C15.4891 13.852 13.8522 15.4889 13.8522 17.5001C13.8522 19.5112 15.4891 21.1481 17.5003 21.1481C19.5115 21.1481 21.1484 19.5112 21.1484 17.5001C21.1484 15.4889 19.5115 13.852 17.5003 13.852ZM17.5003 0.269287C7.98434 0.269287 0.269531 7.98409 0.269531 17.5001C0.269531 27.016 7.98434 34.7308 17.5003 34.7308C27.0163 34.7308 34.7311 27.016 34.7311 17.5001C34.7311 7.98409 27.0163 0.269287 17.5003 0.269287ZM28.2695 22.1551C28.2695 25.5258 25.5261 28.2693 22.1553 28.2693H12.8453C9.47453 28.2693 6.73107 25.5258 6.73107 22.1551V12.8451C6.73107 9.47429 9.47453 6.73083 12.8453 6.73083H22.1553C25.5261 6.73083 28.2695 9.47429 28.2695 12.8451V22.1551Z" fill="#E6E6E7"/>
</g>
<defs>
<clipPath id="clip0_19_2292">
<rect width="35" height="35" fill="white"/>
</clipPath>
</defs>
</svg>
