<svg width="26" height="26" viewBox="0 0 26 26" fill="none" xmlns="http://www.w3.org/2000/svg">
<g clip-path="url(#clip0_6_119)">
<path d="M16.458 6.39995H9.54201C7.81001 6.39995 6.40001 7.80995 6.40001 9.54195V16.458C6.40001 18.19 7.81001 19.6 9.54201 19.6H16.458C18.19 19.6 19.6 18.19 19.6 16.458V9.54195C19.6 7.80995 18.19 6.39995 16.458 6.39995ZM13 17.11C10.734 17.11 8.89001 15.266 8.89001 13C8.89001 10.734 10.734 8.88995 13 8.88995C15.266 8.88995 17.11 10.734 17.11 13C17.11 15.266 15.266 17.11 13 17.11ZM17.222 9.72995C16.692 9.72995 16.262 9.29995 16.262 8.76895C16.262 8.23895 16.692 7.80895 17.222 7.80895C17.753 7.80895 18.183 8.23895 18.183 8.76895C18.183 9.29995 17.753 9.72995 17.222 9.72995ZM13 10.29C11.506 10.29 10.29 11.506 10.29 13C10.29 14.494 11.506 15.71 13 15.71C14.494 15.71 15.71 14.494 15.71 13C15.71 11.506 14.494 10.29 13 10.29ZM13 0.199951C5.93101 0.199951 0.200012 5.93095 0.200012 13C0.200012 20.069 5.93101 25.8 13 25.8C20.069 25.8 25.8 20.069 25.8 13C25.8 5.93095 20.069 0.199951 13 0.199951ZM21 16.458C21 18.962 18.962 21 16.458 21H9.54201C7.03801 21 5.00001 18.962 5.00001 16.458V9.54195C5.00001 7.03795 7.03801 4.99995 9.54201 4.99995H16.458C18.962 4.99995 21 7.03795 21 9.54195V16.458Z" fill="#E6E6E7"/>
</g>
<defs>
<clipPath id="clip0_6_119">
<rect width="26" height="26" fill="white"/>
</clipPath>
</defs>
</svg>
