<svg width="26" height="26" viewBox="0 0 26 26" fill="none" xmlns="http://www.w3.org/2000/svg">
<path fill-rule="evenodd" clip-rule="evenodd" d="M23.8333 13.0001C23.8333 18.9831 18.983 23.8334 13 23.8334C7.01687 23.8334 2.16663 18.9831 2.16663 13.0001C2.16663 7.01699 7.01687 2.16675 13 2.16675C18.983 2.16675 23.8333 7.01699 23.8333 13.0001ZM7.58871 9.75008C7.58871 9.15425 8.07079 8.66675 8.66663 8.66675H17.3333C17.9291 8.66675 18.4166 9.15425 18.4166 9.75008V16.2501C18.4166 16.8459 17.9291 17.3334 17.3333 17.3334H8.66663C8.07079 17.3334 7.58329 16.8459 7.58329 16.2501L7.58871 9.75008ZM13 13.5417L8.66664 10.8334V16.2501H17.3333V10.8334L13 13.5417ZM13 12.4584L8.66664 9.75009H17.3333L13 12.4584Z" fill="#E6E6E7"/>
</svg>
