<svg width="26" height="26" viewBox="0 0 26 26" fill="none" xmlns="http://www.w3.org/2000/svg">
<path d="M12.9999 24.0992C19.0611 24.0992 24.0993 19.0611 24.0993 12.9999C24.0993 6.92797 19.0502 1.90063 12.9891 1.90063C6.91706 1.90063 1.90063 6.92797 1.90063 12.9999C1.90063 19.0611 6.92797 24.0992 12.9999 24.0992ZM10.1598 15.7095C7.46115 13.0217 5.74186 9.59394 7.77673 7.55912C7.89642 7.43938 8.02702 7.31968 8.14672 7.19999C8.76696 6.61239 9.36547 6.64503 9.89865 7.39587L11.3133 9.40897C11.7921 10.1054 11.6724 10.4972 11.161 11.0413L10.7148 11.5309C10.5516 11.6832 10.6169 11.89 10.693 12.0206C10.8998 12.4123 11.4874 13.1088 12.1185 13.7399C12.7714 14.3928 13.4352 14.9478 13.8487 15.1763C14.0011 15.2633 14.2187 15.2851 14.3602 15.1545L14.8281 14.7084C15.3504 14.1969 15.7748 14.0664 16.4494 14.5451C17.3853 15.2089 17.9511 15.6007 18.5061 15.9815C19.1916 16.4821 19.3549 17.1024 18.6584 17.7335C18.5387 17.8532 18.4299 17.9838 18.3102 18.1035C16.2753 20.1275 12.8585 18.4081 10.1598 15.7095Z" fill="#E6E6E7"/>
</svg>
